<svg id="Layer_1" data-name="Layer 1" xmlns="http://www.w3.org/2000/svg" viewBox="0 0 441.62 442.23"><defs><style>.cls-1{fill:#93b0bb;}</style></defs><path class="cls-1" d="M239.15,266c1.27,1,2.08,1.69,2.87,2.36q7.78,6.66,15.56,13.32,38.25,32.7,76.51,65.37,18,15.4,36.11,30.77a6.15,6.15,0,0,0,2.37,1.25,4.54,4.54,0,0,0,5.43-2.5,5.15,5.15,0,0,0-.78-6.23q-18.37-21.43-36.72-42.89-33.84-39.57-67.69-79.15c-2.35-2.75-4.63-5.55-7.24-8.67,1.25-.18,2-.32,2.68-.37l84.7-6.64,84.2-6.59c2.93-.23,4.48-1.94,4.47-4.92a4.54,4.54,0,0,0-4.55-4.89q-43.59-3.48-87.19-6.93c-24.66-1.93-49.33-3.77-74-5.67-3.28-.25-6.55-.59-10.41-.94,1-1.2,1.59-1.95,2.22-2.68q24.33-28.49,48.68-57,21.18-24.77,42.39-49.53C365,86.22,371.22,79,377.39,71.64a5,5,0,0,0-.29-7.17,5,5,0,0,0-7,0q-8.76,7.42-17.47,14.91L298,126.08l-57.15,48.83A17.47,17.47,0,0,1,239.1,176c-.3-3.5-.59-6.61-.83-9.73q-2.39-30.15-4.74-60.29-3.42-43.35-6.86-86.69c-.41-5.14-.76-10.3-1.32-15.43-.3-2.81-1.95-4-4.83-3.89-2.66.08-3.94,1.22-4.31,3.87-.1.74-.17,1.49-.23,2.24q-1.77,22-3.53,44.08Q210.2,78.33,208,106.48q-2.37,30.27-4.7,60.54c-.22,2.91-.52,5.81-.82,9.07a16.69,16.69,0,0,1-1.51-.94l-70.25-60L71.85,64.83c-2.64-2.25-5.31-2.38-7.32-.41-2.33,2.3-2.35,4.86.08,7.73q23.22,27.3,46.46,54.57,31.2,36.57,62.45,73.1c.66.77,1.19,1.65,2,2.8-1.31.17-2.12.32-2.93.38l-84.69,6.66L4.46,216.21C1.21,216.47,0,217.75,0,221c0,3.61,1,4.78,4.36,5q43.85,3.48,87.68,7,36.75,2.88,73.5,5.65c3.21.25,6.41.58,10.14.92-.92,1.22-1.46,2-2.08,2.75q-14.91,17.49-29.84,34.94L85.58,345.47C78.29,354,71,362.55,63.8,371.2a5.19,5.19,0,0,0-1.12,4c1.21,4.32,5.33,5.41,8.68,2.55l45.21-38.57q41.6-35.51,83.19-71c.71-.61,1.51-1.1,2.72-2,.31,3.64.6,6.68.84,9.72q2.34,30.15,4.69,60.29c1.58,20,3.23,40,4.84,60,1.11,13.86,2.16,27.73,3.3,41.6.3,3.62,1.41,4.49,5,4.39,3.14-.08,4.14-1.27,4.46-5.35q2.27-28.51,4.51-57,4.13-52.31,8.24-104.63C238.55,272.34,238.84,269.48,239.15,266Z"/></svg>